<svg width="68" height="46" viewBox="0 0 68 46" fill="none" xmlns="http://www.w3.org/2000/svg">
<path d="M64.195 41.0953C64.2748 40.8587 64.3192 40.6063 64.3192 40.3429V12.6962C64.3192 11.3853 63.2445 10.3236 61.9199 10.3236H48.5602V39.7505C48.5602 40.2228 48.474 40.6744 48.3208 41.0962H46.7541C46.8339 40.8596 46.8783 40.6072 46.8783 40.3438V2.37256C46.8783 1.06173 45.8036 0 44.479 0H23.5184C22.1928 0 21.119 1.06263 21.119 2.37256V40.3429C21.119 40.6063 21.1643 40.8587 21.2441 41.0953H19.6774C19.5251 40.6744 19.4382 40.2228 19.4382 39.7496V10.3236H6.39993C5.0743 10.3236 4.00053 11.3862 4.00053 12.6962V40.3429C4.00053 40.6063 4.04583 40.8587 4.12468 41.0953H0V46H68V41.0953H64.195ZM11.1997 31.4045H7.75912V28.0031H11.1997V31.4045ZM11.1997 25.4317H7.75912V22.0297H11.1997V25.4317ZM11.1997 19.6571H7.75912V16.255H11.1997V19.6571ZM16.5603 31.4036H13.1198V28.0022H16.5603V31.4036ZM16.5603 25.4308H13.1198V22.0288H16.5603V25.4308ZM16.5603 19.6562H13.1198V16.2541H16.5603V19.6562ZM39.3403 40.9358H29.2397V28.4763H39.3403V40.9358ZM33.9994 17.797C29.3276 17.797 25.54 14.0518 25.54 9.43206C25.54 4.81234 29.3285 1.06622 33.9994 1.06622C38.6706 1.06622 42.4601 4.81145 42.4601 9.43206C42.4601 14.0527 38.6724 17.797 33.9994 17.797ZM55.8407 31.4036H52.4002V28.0022H55.8407V31.4036ZM55.8407 25.4308H52.4002V22.0288H55.8407V25.4308ZM55.8407 19.6562H52.4002V16.2541H55.8407V19.6562ZM61.1994 31.4027H57.7598V28.0013H61.1994V31.4027ZM61.1994 25.4299H57.7598V22.0279H61.1994V25.4299ZM61.1994 19.6553H57.7598V16.2532H61.1994V19.6553ZM36.0989 7.35697H39.3394V11.509H36.0989V14.7139H31.9002V11.509H28.6598V7.35697H31.9002V4.1529H36.0989V7.35697Z" fill="#A5CFFF"/>
</svg>
